HIERARCHY
ROOT Hips
{
	OFFSET 11.2666 35.4190 -54.3259
	CHANNELS 6 Xposition Yposition Zposition Xrotation Yrotation Zrotation
	JOINT Spine
	{
		OFFSET 0.0000 8.4730 0.0000
		CHANNELS 3 Xrotation Yrotation Zrotation
		JOINT Head
		{
			OFFSET 0.0000 13.8244 0.0000
			CHANNELS 3 Xrotation Yrotation Zrotation
			End Site
			{
				OFFSET 0.0000 4.5275 0.0000
			}
		}
		JOINT LeftShoulder
		{
			OFFSET 0.0000 9.9635 0.0000
			CHANNELS 3 Xrotation Yrotation Zrotation
			JOINT LeftArm
			{
				OFFSET 7.3084 0.0000 0.0000
				CHANNELS 3 Xrotation Yrotation Zrotation
				JOINT LeftForeArm
				{
					OFFSET 10.7061 0.0000 0.0000
					CHANNELS 3 Xrotation Yrotation Zrotation
					JOINT LeftHand
					{
						OFFSET 8.4968 0.0000 0.0000
						CHANNELS 3 Xrotation Yrotation Zrotation
						JOINT LeftHandThumb1
						{
							OFFSET 0.0000 0.0000 0.0000
							CHANNELS 3 Xrotation Yrotation Zrotation
							End Site
							{
								OFFSET 0.0000 0.0000 3.9370
							}
						}
						JOINT LeftHand_End
						{
							OFFSET 3.9370 0.0000 0.0000
							CHANNELS 3 Xrotation Yrotation Zrotation
							End Site
							{
								OFFSET 0.0000 0.0000 0.0000
							}
						}
					}
				}
			}
		}
		JOINT RightShoulder
		{
			OFFSET 0.0000 9.9635 0.0000
			CHANNELS 3 Xrotation Yrotation Zrotation
			JOINT RightArm
			{
				OFFSET -7.3084 0.0000 0.0000
				CHANNELS 3 Xrotation Yrotation Zrotation
				JOINT RightForeArm
				{
					OFFSET -10.7061 0.0000 0.0000
					CHANNELS 3 Xrotation Yrotation Zrotation
					JOINT RightHand
					{
						OFFSET -8.4968 0.0000 0.0000
						CHANNELS 3 Xrotation Yrotation Zrotation
						JOINT RightHandThumb1
						{
							OFFSET 0.0000 0.0000 0.0000
							CHANNELS 3 Xrotation Yrotation Zrotation
							End Site
							{
								OFFSET 0.0000 0.0000 3.9370
							}
						}
						JOINT RightHand_End
						{
							OFFSET -3.9370 0.0000 0.0000
							CHANNELS 3 Xrotation Yrotation Zrotation
							End Site
							{
								OFFSET 0.0000 0.0000 0.0000
							}
						}
					}
				}
			}
		}
	}
	JOINT LeftUpLeg
	{
		OFFSET 4.0316 0.0000 0.0000
		CHANNELS 3 Xrotation Yrotation Zrotation
		JOINT LeftLeg
		{
			OFFSET 0.0000 -16.7874 0.0000
			CHANNELS 3 Xrotation Yrotation Zrotation
			JOINT LeftFoot
			{
				OFFSET 0.0000 -15.4942 0.0000
				CHANNELS 3 Xrotation Yrotation Zrotation
				JOINT LeftToeBase
				{
					OFFSET 0.0000 -1.4513 5.4164
					CHANNELS 3 Xrotation Yrotation Zrotation
					End Site
					{
						OFFSET 0.0000 0.0000 2.9527
					}
				}
			}
		}
	}
	JOINT RightUpLeg
	{
		OFFSET -4.0316 0.0000 0.0000
		CHANNELS 3 Xrotation Yrotation Zrotation
		JOINT RightLeg
		{
			OFFSET 0.0000 -16.7874 0.0000
			CHANNELS 3 Xrotation Yrotation Zrotation
			JOINT RightFoot
			{
				OFFSET 0.0000 -15.4942 0.0000
				CHANNELS 3 Xrotation Yrotation Zrotation
				JOINT RightToeBase
				{
					OFFSET 0.0000 -1.4513 5.4164
					CHANNELS 3 Xrotation Yrotation Zrotation
					End Site
					{
						OFFSET 0.0000 0.0000 2.9527
					}
				}
			}
		}
	}
}
MOTION
Frames: 15
Frame Time: 0.008333
-18.1094 32.6825 -155.0510 -126.1754 -81.5704 -138.0632 9.2838 11.0760 2.9015 -17.1144 52.8730 -0.8880 1.7639 13.9031 3.5622 5.5481 3.6403 -90.4345 -27.5142 -39.9535 -18.4947 0.0828 -1.0310 4.5909 -0.0000 0.0000 -0.0000 -0.0000 0.0000 -0.0000 5.2555 -3.5938 -13.2018 -11.1209 -13.9036 81.5578 -0.6110 53.1995 0.4892 0.6472 -5.6035 6.5988 -0.0000 0.0000 -0.0000 -0.0000 0.0000 -0.0000 -20.5878 16.1316 -6.5890 25.0875 0.0000 0.0000 -9.2087 11.2872 16.8044 -7.3055 0.0000 0.0000 1.3862 -4.8157 -12.5381 64.4924 0.0000 -0.0000 30.6949 1.3382 20.5265 -8.6706 -0.0000 -0.0000 
-18.6058 32.8481 -154.8940 -118.4321 -82.0943 -130.6520 9.1676 10.5616 3.9224 -15.2039 53.3551 -2.0343 1.6144 13.4442 3.4097 4.2425 4.4523 -91.0437 -27.2474 -38.5511 -17.7935 0.0530 -0.7126 4.2530 -0.0000 0.0000 -0.0000 -0.0000 0.0000 -0.0000 5.2568 -3.2260 -13.4524 -10.9827 -12.7589 80.8516 -3.3748 50.7893 2.6161 0.6532 -5.4638 6.8284 -0.0000 0.0000 -0.0000 -0.0000 0.0000 -0.0000 -18.8161 14.9939 -7.1642 24.1137 0.0000 -0.0000 -9.2581 11.1723 16.9847 -7.3619 -0.0000 0.0000 -0.4751 -3.7736 -11.6914 66.4241 0.0000 0.0000 28.6421 -0.5515 21.8556 -8.3260 -0.0000 0.0000 
-19.1084 33.0171 -154.7300 -109.7259 -82.3893 -122.2219 9.1355 10.0319 4.8528 -13.3102 53.6922 -3.1972 1.4073 13.0270 3.3291 3.0582 4.0270 -91.3520 -28.6099 -36.9475 -18.1521 0.0568 -0.7387 4.4004 -0.0000 0.0000 -0.0000 -0.0000 0.0000 -0.0000 5.2480 -2.8799 -13.6803 -10.9474 -11.5298 80.1637 -5.0651 48.1973 3.7801 0.7449 -5.3594 7.9248 -0.0000 0.0000 -0.0000 -0.0000 0.0000 -0.0000 -16.8717 14.0667 -7.6785 23.0207 0.0000 0.0000 -9.2774 10.7882 16.8109 -7.2134 0.0000 -0.0000 -2.2923 -3.0411 -10.9994 68.0173 -0.0000 -0.0000 26.5692 -2.7145 22.1589 -8.4199 -0.0000 -0.0000 
-19.5845 33.1912 -154.5850 -100.4297 -82.5866 -113.3943 9.0309 9.6255 5.9608 -11.5265 53.6544 -4.3181 1.3117 12.6366 3.3502 1.7560 2.4688 -91.4835 -29.8183 -35.5463 -18.4278 0.0534 -0.6757 4.5175 -0.0000 0.0000 -0.0000 -0.0000 0.0000 -0.0000 5.3457 -2.6373 -13.8129 -10.7515 -9.7011 79.3451 -6.5705 45.9461 4.7321 0.7815 -5.3759 8.2838 -0.0000 0.0000 -0.0000 -0.0000 0.0000 -0.0000 -15.0909 13.1727 -7.8958 21.9028 0.0000 0.0000 -9.1890 10.3109 16.6227 -7.0975 -0.0000 -0.0000 -4.1942 -2.4080 -10.0298 69.3011 -0.0000 0.0000 24.4798 -5.0424 22.2710 -8.0005 -0.0000 -0.0000 
-20.0718 33.3637 -154.4300 -89.2912 -82.5386 -102.6674 9.0515 8.9636 6.9969 -9.9249 53.6839 -5.3005 1.1144 12.2485 3.4699 0.7451 0.3561 -91.4818 -30.7166 -34.6009 -18.6439 0.0500 -0.6308 4.5298 -0.0000 0.0000 -0.0000 -0.0000 0.0000 -0.0000 5.5004 -2.3677 -13.9243 -10.6021 -8.0109 78.5711 -7.7209 43.8076 5.3616 0.8839 -5.4610 9.2082 -0.0000 0.0000 -0.0000 -0.0000 0.0000 -0.0000 -13.0590 12.4116 -8.1801 20.5647 0.0000 -0.0000 -8.9458 9.5642 16.6664 -7.0857 0.0000 -0.0000 -5.8588 -1.9823 -9.1738 70.1611 0.0000 -0.0000 22.5624 -7.1841 22.1922 -8.0751 -0.0000 -0.0000 
-20.5538 33.5287 -154.2810 -78.4920 -82.3247 -92.2975 8.9478 8.2836 7.9606 -8.6075 53.7191 -5.9392 1.0816 11.8987 3.7271 -0.3144 -2.2068 -91.3775 -30.9537 -34.2103 -18.6343 0.0277 -0.3666 4.3285 -0.0000 0.0000 -0.0000 -0.0000 0.0000 -0.0000 5.6962 -2.0843 -13.8886 -10.2560 -6.0413 77.6890 -8.7574 41.9677 5.8814 0.9746 -5.5622 9.9550 -0.0000 0.0000 -0.0000 -0.0000 0.0000 -0.0000 -11.1609 11.7680 -8.3464 19.2797 -0.0000 0.0000 -8.7455 8.6716 16.4790 -6.5670 0.0000 -0.0000 -7.5753 -1.5895 -8.2715 70.6855 -0.0000 0.0000 20.5812 -8.6831 21.6167 -7.4298 -0.0000 -0.0000 
-21.0441 33.6857 -154.1250 -67.7920 -81.7419 -81.9825 8.9690 7.5990 8.7971 -7.5971 53.6578 -6.2616 0.8595 11.3064 4.1348 -0.8801 -4.7278 -91.2630 -30.3839 -34.6868 -18.4522 -0.0037 0.0531 3.9945 -0.0000 0.0000 -0.0000 -0.0000 0.0000 -0.0000 5.9124 -1.8616 -13.7689 -9.7596 -4.1194 76.8308 -8.9397 40.4726 5.8300 1.0459 -5.5855 10.6239 -0.0000 0.0000 -0.0000 -0.0000 0.0000 -0.0000 -9.2386 10.6554 -8.5784 18.0275 0.0000 -0.0000 -8.4365 8.1687 16.4368 -5.8850 0.0000 -0.0000 -9.0765 -1.3706 -7.4898 70.8837 -0.0000 -0.0000 18.9139 -9.8395 20.3222 -8.3639 -0.0000 0.0000 
-21.5036 33.8329 -153.9840 -57.4468 -81.0845 -72.0292 8.8037 6.8518 9.5243 -6.9617 53.4987 -6.2572 0.8576 10.7276 4.5786 -1.5847 -7.2009 -91.0715 -29.1516 -35.7041 -18.0309 0.0233 -0.3784 3.5240 -0.0000 0.0000 -0.0000 -0.0000 0.0000 -0.0000 6.1411 -1.6723 -13.5098 -9.0991 -2.2101 76.0033 -8.3617 39.3828 5.3281 1.0742 -5.4621 11.1438 -0.0000 0.0000 -0.0000 -0.0000 0.0000 -0.0000 -7.6445 9.6260 -8.7325 16.8354 -0.0000 -0.0000 -7.8151 7.5798 16.7884 -6.0889 0.0000 -0.0000 -10.7895 -1.1458 -6.6751 70.8899 0.0000 -0.0000 17.0537 -10.4869 19.3204 -8.3541 -0.0000 -0.0000 
-21.9603 33.9696 -153.8430 -47.4296 -80.0679 -62.4076 8.6621 5.8975 10.1915 -6.6415 53.2158 -5.9905 0.8557 10.0651 5.1010 -2.0424 -9.3805 -90.9199 -27.1067 -37.5357 -17.3208 0.0098 -0.1533 3.6401 -0.0000 0.0000 -0.0000 -0.0000 0.0000 -0.0000 6.4385 -1.4636 -13.1544 -8.3789 -0.6581 75.1761 -7.5615 38.6821 4.7427 1.1186 -5.4083 11.7036 -0.0000 0.0000 -0.0000 -0.0000 0.0000 -0.0000 -6.1457 8.3208 -8.8857 15.7195 0.0000 -0.0000 -7.0563 7.3256 17.6317 -6.5867 0.0000 0.0000 -12.3729 -1.0543 -5.8976 70.5970 0.0000 -0.0000 15.2272 -10.8087 18.2388 -8.4913 -0.0000 0.0000 
-22.4053 34.0970 -153.7110 -38.5216 -78.7533 -53.9737 8.5064 4.9001 10.8710 -6.6246 52.7766 -5.5607 0.8844 9.3715 5.6776 -2.4662 -11.3166 -90.7804 -24.9769 -39.5927 -16.5349 0.0096 -0.1706 3.2242 -0.0000 0.0000 -0.0000 -0.0000 0.0000 -0.0000 6.7075 -1.3571 -12.6428 -7.2609 1.1408 74.2077 -7.5176 38.6379 4.7105 1.1087 -5.5920 11.2329 -0.0000 0.0000 -0.0000 -0.0000 0.0000 -0.0000 -4.8770 6.7332 -8.8952 14.8131 0.0000 -0.0000 -6.5268 7.0953 18.2731 -6.6559 0.0000 0.0000 -13.8861 -0.8380 -4.9360 70.0103 -0.0000 0.0000 13.5311 -11.0064 17.0090 -8.5767 0.0000 0.0000 
-22.8436 34.2039 -153.5670 -31.0589 -77.1851 -46.8431 8.3253 3.9160 11.3171 -6.8106 52.1243 -4.9721 0.9983 8.5997 6.2543 -2.8852 -13.0431 -90.5642 -22.4455 -42.0361 -15.4620 0.0081 -0.1411 3.2993 -0.0000 0.0000 -0.0000 -0.0000 0.0000 -0.0000 7.1713 -1.4855 -12.0706 -6.6974 1.9707 73.4761 -6.2538 38.5910 3.9103 1.1721 -5.6531 11.7334 -0.0000 0.0000 -0.0000 -0.0000 0.0000 -0.0000 -3.6620 5.3723 -9.0430 13.9674 0.0000 0.0000 -5.9064 6.9624 19.0783 -6.9042 0.0000 -0.0000 -15.3763 -0.5842 -4.1741 69.2548 0.0000 0.0000 11.8997 -11.1000 15.7507 -8.6265 -0.0000 0.0000 
-23.2820 34.2955 -153.4230 -24.7247 -75.2450 -40.7909 8.2359 2.8038 11.6325 -7.2120 51.1919 -4.3203 1.0227 7.7844 6.9407 -3.3128 -14.6535 -90.3921 -20.0492 -44.4619 -14.3388 0.0166 -0.2797 3.3929 -0.0000 0.0000 -0.0000 -0.0000 0.0000 -0.0000 7.5265 -1.7397 -11.3791 -6.2991 1.9414 72.8916 -5.2543 38.6313 3.2859 1.3092 -5.7305 12.8922 -0.0000 0.0000 -0.0000 -0.0000 0.0000 -0.0000 -2.4096 4.1706 -9.1298 13.1933 0.0000 0.0000 -5.4401 6.3132 19.3451 -7.1300 0.0000 0.0000 -16.6916 -0.4410 -3.5252 68.2016 0.0000 -0.0000 10.6082 -11.1584 14.2245 -9.1824 -0.0000 -0.0000 
-23.7369 34.3747 -153.2470 -20.3318 -73.1740 -36.4075 8.2162 1.7998 11.5852 -7.7062 50.1223 -3.5092 1.0943 6.9488 7.5582 -3.6016 -16.0193 -90.0555 -17.8261 -47.0364 -13.2418 0.0073 -0.1163 3.6131 -0.0000 0.0000 -0.0000 -0.0000 0.0000 -0.0000 7.8828 -2.0161 -10.5606 -5.5494 2.6205 72.2756 -4.1985 38.8126 2.6344 1.2088 -5.6223 12.1551 -0.0000 0.0000 -0.0000 -0.0000 0.0000 -0.0000 -0.6880 3.9143 -9.3292 12.0959 -0.0000 0.0000 -4.8231 4.8429 19.4072 -6.6954 0.0000 0.0000 -17.7161 0.0526 -3.1302 66.8637 0.0000 0.0000 9.4150 -11.2481 13.3324 -9.7978 -0.0000 0.0000 
-24.1986 34.4420 -153.0730 -17.0155 -70.9962 -33.1175 8.2591 0.7602 11.5419 -8.0893 49.0614 -2.8236 1.0182 6.3782 8.1084 -3.9275 -17.5334 -89.6112 -15.8302 -49.3902 -12.1478 -0.0037 0.0571 3.7276 -0.0000 0.0000 -0.0000 -0.0000 0.0000 -0.0000 8.3454 -2.2941 -9.7187 -5.1582 2.5117 71.8239 -3.6230 39.0411 2.2839 1.1993 -5.6371 12.0310 -0.0000 0.0000 -0.0000 -0.0000 0.0000 -0.0000 0.9188 3.7384 -9.4242 11.4207 0.0000 -0.0000 -4.5928 3.2380 18.8849 -6.2053 -0.0000 -0.0000 -18.5244 0.6262 -2.7553 65.2807 0.0000 0.0000 8.1265 -11.2086 13.2745 -10.0762 0.0000 0.0000 
-24.6510 34.5032 -152.9160 -14.2273 -68.7870 -30.5065 8.3020 -0.2451 11.6367 -8.5384 47.9347 -2.1550 0.8301 5.7106 8.6320 -4.1763 -18.9428 -89.1309 -14.6883 -51.4702 -11.5883 0.0078 -0.1160 3.8695 -0.0000 0.0000 -0.0000 -0.0000 0.0000 -0.0000 8.7472 -2.6282 -8.8603 -4.8260 2.2789 71.4075 -3.4478 39.2809 2.1844 1.1769 -5.5755 11.9390 -0.0000 0.0000 -0.0000 -0.0000 0.0000 -0.0000 2.2169 4.5021 -9.2097 11.4656 0.0000 0.0000 -4.7800 0.9509 18.3159 -5.4830 -0.0000 -0.0000 -19.3242 1.1956 -2.2495 63.5455 0.0000 0.0000 6.7958 -10.8580 13.2672 -9.5799 0.0000 0.0000 
